<?xml version="1.0" standalone="no"?><!DOCTYPE svg PUBLIC "-//W3C//DTD SVG 1.1//EN" "http://www.w3.org/Graphics/SVG/1.1/DTD/svg11.dtd"><svg class="icon" width="200px" height="200.00px" viewBox="0 0 1024 1024" version="1.1" xmlns="http://www.w3.org/2000/svg"><path fill="#8a8a8a" d="M793.031111 579.527111c-33.735111 0-66.56-9.386667-95.516444-27.136a172.373333 172.373333 0 0 1-46.592-41.528889A173.511111 173.511111 0 0 1 512 579.527111 173.511111 173.511111 0 0 1 373.077333 510.862222a172.373333 172.373333 0 0 1-46.592 41.528889 181.816889 181.816889 0 0 1-100.920889 27.022222 164.408889 164.408889 0 0 1-117.873777-54.499555 177.720889 177.720889 0 0 1-45.681778-119.808v-5.632c0-3.242667 0.455111-6.485333 1.365333-9.557334l63.715556-215.552c7.68-25.941333 24.348444-49.152 46.819555-65.251555a131.868444 131.868444 0 0 1 77.198223-24.632889h521.671111c27.989333 0 54.670222 8.533333 77.198222 24.632889 22.471111 16.213333 39.139556 39.424 46.762667 65.251555l63.772444 215.608889c0.910222 3.128889 1.365333 6.257778 1.365333 9.500445v5.688889c0 44.714667-16.213333 87.267556-45.681777 119.751111a163.555556 163.555556 0 0 1-123.164445 54.613333zM373.191111 422.001778c18.204444 0 34.531556 10.808889 41.813333 27.534222A104.789333 104.789333 0 0 0 512 511.886222c42.552889 0 80.668444-24.519111 96.995556-62.350222a45.511111 45.511111 0 0 1 83.456 0c16.440889 38.058667 59.164444 63.829333 103.936 62.464 55.011556-1.592889 98.133333-48.583111 98.133333-106.894222V404.48l-62.464-210.773333c-7.168-24.576-31.630222-41.528889-59.278222-41.528889h-521.671111c-27.648 0-51.996444 17.066667-59.278223 41.528889L129.479111 404.309333v0.682667c0 58.311111 43.121778 105.301333 98.133333 106.894222 44.771556 1.365333 87.608889-24.462222 103.936-62.464a45.340444 45.340444 0 0 1 41.642667-27.420444z m397.539556 517.518222H253.269333c-68.266667 0-123.790222-55.466667-123.790222-123.790222v-157.468445a33.678222 33.678222 0 1 1 67.527111 0v157.468445a56.32 56.32 0 0 0 56.263111 56.32h517.461334a56.32 56.32 0 0 0 56.32-56.32v-157.468445a33.678222 33.678222 0 1 1 67.470222 0v157.468445c0 68.266667-55.466667 123.790222-123.790222 123.790222z" /></svg>