<?xml version="1.0" standalone="no"?><!DOCTYPE svg PUBLIC "-//W3C//DTD SVG 1.1//EN" "http://www.w3.org/Graphics/SVG/1.1/DTD/svg11.dtd"><svg class="icon" width="200px" height="200.00px" viewBox="0 0 1024 1024" version="1.1" xmlns="http://www.w3.org/2000/svg"><path fill="#d81e06" d="M935.995 570.855v-29.168A443.811 443.811 0 0 0 821.72 215.813a366.84 366.84 0 0 0-133.105-86.76C680.351 57.008 603.023 0.065 508.68 0.065S336.328 56.878 328.744 129.053a366.84 366.84 0 0 0-133.104 86.76A441.931 441.931 0 0 0 81.365 541.136v35.65a92.593 92.593 0 0 0-23.983 94.31 97.584 97.584 0 0 0 60.93 66.213 92.236 92.236 0 0 0 50.363 14.68 353.616 353.616 0 0 0 688.241-0.582c1.134 0 2.301 0.583 3.565 0.583a98.167 98.167 0 0 0 60.93-21.682 96.968 96.968 0 0 0 45.664-59.795 94.667 94.667 0 0 0-31.08-99.658zM833.97 659.332a415.356 415.356 0 0 1-4.699 62.064 351.866 351.866 0 0 1-267.246 164.087 58.66 58.66 0 0 0-46.928-19.445c-29.169 0-52.795 15.848-52.795 35.65 0 19.445 23.4 35.65 52.795 35.65a51.304 51.304 0 0 0 52.21-29.946 410.073 410.073 0 0 0 107.275-26.965A369.01 369.01 0 0 0 800.59 795.97a248.254 248.254 0 0 0 16.4-18.117 305.132 305.132 0 0 1-302.314 213.22h-1.134c-189.334 0-321.175-136.54-321.175-331.74l-0.583-18.7c0-8.264 1.134-30.53 2.3-51.628 78.593-28.682 149.504-138.387 178.251-188.75A419.504 419.504 0 0 0 551.687 540.94a689.375 689.375 0 0 0 104.292 28.1c68.61 14.68 133.688 28.681 177.635 86.175l1.718 1.718z m0 0"  /></svg>